<?xml version="1.0" encoding="UTF-8" standalone="no"?>
<!-- Created with Inkscape (http://www.inkscape.org/) -->

<svg
   xmlns:dc="http://purl.org/dc/elements/1.1/"
   xmlns:cc="http://creativecommons.org/ns#"
   xmlns:rdf="http://www.w3.org/1999/02/22-rdf-syntax-ns#"
   xmlns:svg="http://www.w3.org/2000/svg"
   xmlns="http://www.w3.org/2000/svg"
   xmlns:xlink="http://www.w3.org/1999/xlink"
   xmlns:sodipodi="http://sodipodi.sourceforge.net/DTD/sodipodi-0.dtd"
   xmlns:inkscape="http://www.inkscape.org/namespaces/inkscape"
   id="svg2"
   version="1.1"
   inkscape:version="0.47 r22583"
   width="429.23132"
   height="429.23132"
   sodipodi:docname="Oceana Football Confederation logo-construction.svg"
   style="display:inline">
  <sodipodi:namedview
     pagecolor="#ffffff"
     bordercolor="#666666"
     borderopacity="1"
     objecttolerance="10"
     gridtolerance="10"
     guidetolerance="10"
     inkscape:pageopacity="0"
     inkscape:pageshadow="2"
     inkscape:window-width="1280"
     inkscape:window-height="1005"
     id="namedview4"
     showgrid="false"
     showguides="true"
     inkscape:guide-bbox="true"
     inkscape:zoom="1.0396476"
     inkscape:cx="360.7856"
     inkscape:cy="-12.737544"
     inkscape:window-x="-4"
     inkscape:window-y="-4"
     inkscape:window-maximized="1"
     inkscape:current-layer="layer8">
    <sodipodi:guide
       orientation="1,0"
       position="-3.1974423e-14,163.63685"
       id="guide2818" />
    <sodipodi:guide
       orientation="1,0"
       position="430.91526,180.95041"
       id="guide2820" />
    <sodipodi:guide
       orientation="0,1"
       position="157.74576,429.11142"
       id="guide2822" />
    <sodipodi:guide
       orientation="0,1"
       position="185.63983,214.61566"
       id="guide2849" />
    <sodipodi:guide
       id="guide3190"
       position="-215.45763,-105.68519"
       orientation="1,0" />
    <sodipodi:guide
       id="guide3192"
       position="-278.21928,-131.89599"
       orientation="0,1" />
    <sodipodi:guide
       id="guide3194"
       position="-225.46998,-31.306583"
       orientation="0,1" />
    <sodipodi:guide
       id="guide3224"
       position="216.90043,165.07965"
       orientation="1,0" />
    <sodipodi:guide
       id="guide3514"
       position="145.37682,331.03845"
       orientation="0,1" />
    <sodipodi:guide
       id="guide3517"
       position="217.90738,383.82865"
       orientation="0,1" />
    <sodipodi:guide
       orientation="0,1"
       position="117.70816,231.56852"
       id="guide6174" />
    <sodipodi:guide
       orientation="0,1"
       position="-455.92373,281.46524"
       id="guide6188" />
  </sodipodi:namedview>
  <metadata
     id="metadata8">
    <rdf:RDF>
      <cc:Work
         rdf:about="">
        <dc:format>image/svg+xml</dc:format>
        <dc:type
           rdf:resource="http://purl.org/dc/dcmitype/StillImage" />
        <dc:title></dc:title>
      </cc:Work>
    </rdf:RDF>
  </metadata>
  <defs
     id="defs6">
    <inkscape:perspective
       sodipodi:type="inkscape:persp3d"
       inkscape:vp_x="0 : 0.5 : 1"
       inkscape:vp_y="0 : 1000 : 0"
       inkscape:vp_z="1 : 0.5 : 1"
       inkscape:persp3d-origin="0.5 : 0.33333333 : 1"
       id="perspective10" />
    <inkscape:perspective
       id="perspective2835"
       inkscape:persp3d-origin="0.5 : 0.33333333 : 1"
       inkscape:vp_z="1 : 0.5 : 1"
       inkscape:vp_y="0 : 1000 : 0"
       inkscape:vp_x="0 : 0.5 : 1"
       sodipodi:type="inkscape:persp3d" />
    <inkscape:perspective
       sodipodi:type="inkscape:persp3d"
       inkscape:vp_x="0 : 0.5 : 1"
       inkscape:vp_y="0 : 1000 : 0"
       inkscape:vp_z="1 : 0.5 : 1"
       inkscape:persp3d-origin="0.5 : 0.33333333 : 1"
       id="perspective3204" />
    <inkscape:perspective
       sodipodi:type="inkscape:persp3d"
       inkscape:vp_x="0 : 0.5 : 1"
       inkscape:vp_y="0 : 1000 : 0"
       inkscape:vp_z="1 : 0.5 : 1"
       inkscape:persp3d-origin="0.5 : 0.33333333 : 1"
       id="perspective3234" />
    <inkscape:perspective
       sodipodi:type="inkscape:persp3d"
       inkscape:vp_x="0 : 0.5 : 1"
       inkscape:vp_y="0 : 1000 : 0"
       inkscape:vp_z="1 : 0.5 : 1"
       inkscape:persp3d-origin="0.5 : 0.33333333 : 1"
       id="perspective3500" />
    <inkscape:perspective
       sodipodi:type="inkscape:persp3d"
       inkscape:vp_x="0 : 144.59 : 1"
       inkscape:vp_y="0 : 1000 : 0"
       inkscape:vp_z="303.04001 : 144.59 : 1"
       inkscape:persp3d-origin="151.52 : 96.393331 : 1"
       id="perspective3568" />
    <inkscape:perspective
       sodipodi:type="inkscape:persp3d"
       inkscape:vp_x="0 : 0.5 : 1"
       inkscape:vp_y="0 : 1000 : 0"
       inkscape:vp_z="1 : 0.5 : 1"
       inkscape:persp3d-origin="0.5 : 0.33333333 : 1"
       id="perspective3680" />
    <inkscape:perspective
       id="perspective6246"
       inkscape:persp3d-origin="0.5 : 0.33333333 : 1"
       inkscape:vp_z="1 : 0.5 : 1"
       inkscape:vp_y="0 : 1000 : 0"
       inkscape:vp_x="0 : 0.5 : 1"
       sodipodi:type="inkscape:persp3d" />
    <inkscape:perspective
       id="perspective6297"
       inkscape:persp3d-origin="0.5 : 0.33333333 : 1"
       inkscape:vp_z="1 : 0.5 : 1"
       inkscape:vp_y="0 : 1000 : 0"
       inkscape:vp_x="0 : 0.5 : 1"
       sodipodi:type="inkscape:persp3d" />
    <path
       style="color:#000000;fill:none;stroke:#d8ae40;stroke-width:1.77165353;stroke-opacity:1;marker:none;visibility:visible;display:inline;overflow:visible;enable-background:accumulate"
       d="m 49.415784,222.19068 c 0,109.49817 88.765806,198.26397 198.263956,198.26397 109.49816,0 198.26397,-88.7658 198.26397,-198.26397"
       id="path2824-1-4-8"
       sodipodi:nodetypes="csc" />
  </defs>
  <g
     inkscape:groupmode="layer"
     id="layer1"
     inkscape:label="Ronds"
     style="display:inline"
     transform="translate(-30.779661,-7.5750227)">
    <path
       style="color:#000000;fill:#d8ae40;fill-opacity:1;fill-rule:nonzero;stroke:none;stroke-width:1.77165353;marker:none;visibility:visible;display:inline;overflow:visible;enable-background:accumulate"
       d="m 460.01098,222.19068 -429.231319,0 c 0,118.52896 96.086709,214.61566 214.615659,214.61566 118.52895,0 214.61566,-96.0867 214.61566,-214.61566 z"
       id="path2824-1"
       sodipodi:nodetypes="ccsc" />
    <path
       style="color:#000000;fill:#00506f;fill-opacity:1;fill-rule:nonzero;stroke:none;stroke-width:1.77165353;marker:none;visibility:visible;display:inline;overflow:visible;enable-background:accumulate"
       d="m 460.01098,222.19068 -429.231319,0 c 0,-118.52895 96.086709,-214.6156573 214.615659,-214.6156573 118.52895,0 214.61566,96.0867073 214.61566,214.6156573 z"
       id="path2824"
       sodipodi:nodetypes="ccsc" />
    <path
       style="color:#000000;fill:none;stroke:#d8ae40;stroke-width:1.77165353;stroke-opacity:1;marker:none;visibility:visible;display:inline;overflow:visible;enable-background:accumulate"
       d="m 49.415784,222.19068 c 0,109.49817 88.765806,198.26397 198.263956,198.26397 109.49816,0 198.26397,-88.7658 198.26397,-198.26397"
       id="path2824-1-4"
       sodipodi:nodetypes="csc" />
  </g>
  <g
     style="display:inline"
     inkscape:label="Soleil"
     id="layer3"
     inkscape:groupmode="layer"
     transform="translate(-30.779661,-7.5750227)">
    <path
       sodipodi:nodetypes="ccccccccccccccccc"
       id="path3104"
       d="m 163.59375,103.875 9.59375,43.125 -41.65625,-11.09375 22.84375,37.1875 -42.28125,1.375 32.96875,30.28125 -42.4375,17.4375 290.09375,0 -42.4375,-17.4375 33,-30.28125 L 341,173.09375 363.8125,135.90625 322.15625,147 l 9.625,-43.125 -28.30932,21.24947 -112.32151,0.24047 -27.55667,-21.48994 z"
       style="fill:#ceaa41;display:inline" />
  </g>
  <g
     style="display:inline"
     inkscape:label="ïle+Palmier"
     id="layer4"
     inkscape:groupmode="layer"
     transform="translate(-30.779661,-7.5750227)">
    <path
       id="path3484"
       d="M 247.6875,52.96875 C 234.45829,53.050505 237.3184,69.517181 238.375,87 223.84358,67.757354 208.65052,52.968521 188.75,68.625 c 15.57087,2.470011 23.35234,11.837824 30.9375,21.40625 -27.34227,-4.42146 -47.59093,-2.490998 -49.65625,15.65625 39.99142,-2.42899 48.0446,1.71478 58.15625,5.4375 -46.22566,6.77586 -48.12072,16.44068 -54.0625,25.84375 18.65312,-3.69129 44.07954,-10.19471 53.03125,-9.84375 -34.77828,37.31088 -25.22551,42.96861 -23.78125,54.40625 12.33118,-17.52978 21.78459,-39.84964 39.5,-48.40625 l 0,70.8125 c -38.91639,0.31158 -63.06787,7.16336 -85.625,18.25 l 180.375,0 c -20.07402,-9.01003 -46.34555,-17.45455 -85.84375,-18.21875 l 0,-71.21875 c 18.19609,8.28371 27.7165,31.00827 40.21875,48.78125 1.44426,-11.43764 10.96578,-17.09537 -23.8125,-54.40625 8.95171,-0.35096 34.40938,6.15246 53.0625,9.84375 -5.94178,-9.40307 -7.83684,-19.06789 -54.0625,-25.84375 10.11165,-3.72272 18.13358,-7.86649 58.125,-5.4375 C 323.24718,87.540252 303.02977,85.60979 275.6875,90.03125 283.27266,80.462824 291.05413,71.095011 306.625,68.625 286.72448,52.968521 271.50017,67.757354 256.96875,87 255.88595,71.326139 255.64683,56.060759 247.6875,52.96875 z"
       style="fill:#69b55e;fill-opacity:1;stroke:none;display:inline" />
  </g>
  <g
     inkscape:label="Etoiles"
     id="layer5"
     inkscape:groupmode="layer"
     style="display:inline"
     transform="translate(-30.779661,-7.5750227)">
    <path
       inkscape:transform-center-y="30.121714"
       style="fill:#ffffff;fill-opacity:1;fill-rule:evenodd;stroke:none;display:inline"
       d="m 247.68009,22.090068 4.60776,13.255956 14.03105,0.285936 -11.18329,8.478563 4.0639,13.432677 -11.51942,-8.015921 -11.51943,8.015921 4.0639,-13.432677 -11.18329,-8.478563 14.03105,-0.285936 4.60777,-13.255956 z"
       id="path3562" />
    <g
       id="g6147">
      <use
         id="use5232"
         transform="matrix(0.207335,-0.978249,0.978249,0.207335,-22.353158,421.91676)"
         xlink:href="#path3562"
         x="0"
         y="0"
         width="500"
         height="454" />
      <use
         id="use1242"
         transform="matrix(0.452168,-0.891911,0.891911,0.452168,-63.075637,343.31515)"
         xlink:href="#path3562"
         x="0"
         y="0"
         width="500"
         height="454" />
      <use
         id="use6721"
         transform="matrix(0.6775,-0.735498,0.735498,0.6775,-83.97232,254.34943)"
         xlink:href="#path3562"
         x="0"
         y="0"
         width="500"
         height="454" />
      <use
         id="use1837"
         transform="matrix(0.850027,-0.526704,0.526704,0.850027,-79.655247,163.75883)"
         xlink:href="#path3562"
         x="0"
         y="0"
         width="500"
         height="454" />
      <use
         id="use9284"
         transform="matrix(0.961159,-0.275927,0.275927,0.961159,-51.274006,76.82658)"
         xlink:href="#path3562"
         x="0"
         y="0"
         width="500"
         height="454" />
    </g>
    <use
       x="0"
       y="0"
       xlink:href="#g6147"
       id="use6172"
       transform="matrix(-1,0,0,1,493.87803,0.03193931)"
       width="500"
       height="454" />
  </g>
  <g
     inkscape:groupmode="layer"
     id="layer6"
     inkscape:label="Ballon"
     transform="translate(-30.779661,-7.5750227)">
    <g
       style="display:inline"
       id="g6190"
       transform="translate(491.91738,17.5571)">
      <path
         sodipodi:nodetypes="csccccssscc"
         id="path6186"
         d="m -267.29132,353.21838 c -50.60169,-8.18103 -94.56951,-42.21464 -114.73395,-88.81064 -6.87781,-15.89326 -11.07122,-33.82094 -12.08593,-51.66992 l -0.42638,-7.5 300.954424,0 -0.66595,7.74999 c -3.10199,38.42863 -16.810294,69.63693 -41.996514,95.60924 -12.54664,12.93823 -23.76598,21.38341 -38.5457,29.01465 -13.48485,6.96266 -25.34388,11.29907 -38.801,14.18807 -12.91818,2.7733 -40.76901,3.50906 -53.699,1.4186 l 0,1e-5 z"
         style="fill:#0a536c" />
      <path
         id="path6184"
         d="m -223.33216,348.22498 c 12.17098,-1.83443 21.25505,-4.30002 21.88431,-5.93985 0.25846,-0.67354 0.14982,-2.75972 -0.24143,-4.63596 -0.86098,-4.12891 -1.32985,-4.15514 -16.10204,-0.9009 -14.95097,3.29362 -38.00687,3.29831 -53,0.0108 -16.91972,-3.70999 -15.6932,-3.73242 -17.62684,0.32246 -2.35079,4.92966 -1.21728,5.91028 9.86969,8.53843 18.06256,4.2817 37.88673,5.21699 55.21631,2.60506 l 0,-4e-5 z"
         style="fill:#ffffff" />
      <path
         id="path6182"
         d="m -215.53264,331.29455 c 5.91727,-1.35075 11.98121,-3.04186 13.47542,-3.75802 1.59877,-0.76627 6.58733,-6.78295 12.12255,-14.62094 8.78787,-12.44383 9.32109,-13.47714 8.11631,-15.7283 -3.20601,-5.99048 -17.58242,-23.82927 -26.35274,-32.69947 l -9.64022,-9.75 -25.32739,0 -25.32738,0 -7.91262,6.91985 c -13.29901,11.63043 -30.93336,33.57567 -30.17364,37.54989 0.58254,3.04737 17.90691,27.24234 20.30001,28.35072 3.37822,1.56464 19.24737,5.31033 26.32751,6.21423 11.31273,1.44427 32.35564,0.26966 44.39219,-2.47796 z"
         style="fill:#ffffff" />
      <path
         sodipodi:nodetypes="csccccssssssscccssssc"
         id="path6180"
         d="m -304.19163,284.98782 c 4.33086,-5.9125 12.71764,-15.57315 18.6373,-21.46812 5.91965,-5.89496 10.76301,-11.21834 10.76301,-11.82973 l -23.16346,-47.05639 110.10204,0 -24.22301,46.3818 c -0.4457,1.17553 0.0342,2.36098 1.41694,3.5 4.61502,3.80166 21.204,23.06385 27.44224,31.8644 4.85152,6.84422 7.20986,9.35782 8.77933,9.3573 2.16811,-7.2e-4 17.25673,-3.86019 25.76071,-6.58925 3.97816,-1.27665 5.38023,-2.54522 10.1632,-9.1955 6.97703,-9.70092 13.74023,-23.07784 17.55121,-34.71454 5.13441,-15.67774 5.83778,-13.12689 -7.28252,-26.41081 -6.35067,-6.42984 -9.14202,-9.84112 -12.62878,-14.1934 l -205.61993,0.35126 -12.78415,12.8655 c -6.3174,5.71311 -11.68486,10.90201 -11.9277,11.53087 -0.55135,1.42779 2.38774,12.99808 5.2346,20.60697 4.58891,12.26499 15.67195,31.33084 20.97522,36.08314 1.82302,1.63362 27.24127,9.42352 31.31677,9.59761 0.93749,0.0401 4.90955,-4.43198 9.48698,-10.68111 z"
         style="fill:#ffffff;stroke:none" />
      <path
         id="path6178"
         d="m -127.01965,289.98782 c 7.57217,-9.65927 15.98067,-26.1868 20.78623,-40.85688 5.0532,-15.42606 4.47468,-18.57938 -3.03825,-16.56058 -2.67674,0.71926 -3.19762,1.5581 -5.1131,8.23415 -4.32576,15.07673 -10.99567,29.38004 -18.85334,40.43011 -4.14479,5.82873 -4.31228,7.06631 -1.3789,10.18875 2.9667,3.1579 4.17548,2.9295 7.59736,-1.43555 z"
         style="fill:#ffffff" />
      <path
         id="path3090"
         d="m -354.95,289.69325 c 3.85955,-2.35305 3.81323,-2.62874 -1.84069,-10.9545 -7.64771,-11.26175 -13.72535,-25.46649 -19.55141,-45.69576 -0.55541,-1.92851 -7.38054,-2.80242 -9.0271,-1.15586 -1.20591,1.20591 -1.05681,2.67283 1.05478,10.37756 4.05955,14.81239 9.95405,28.02484 18.27945,40.97313 4.10964,6.39162 5.86693,8.44908 7.24365,8.48095 0.275,0.006 2.00359,-0.90512 3.84132,-2.02552 z"
         style="fill:#ffffff" />
    </g>
  </g>
  <g
     inkscape:groupmode="layer"
     id="layer7"
     inkscape:label="Texte"
     style="display:none"
     transform="translate(-30.779661,-7.5750227)">
    <text
       xml:space="preserve"
       style="font-size:48px;font-style:normal;font-variant:normal;font-weight:normal;font-stretch:normal;text-align:start;line-height:125%;writing-mode:lr-tb;text-anchor:start;fill:#00506f;fill-opacity:1;stroke:none;display:inline;font-family:DejaVu Sans Condensed;-inkscape-font-specification:'DejaVu Sans Condensed,'"
       id="text6210"
       sodipodi:linespacing="125%"><textPath
         xlink:href="#path2824-1-4"
         id="textPath6260"><tspan
           style="font-size:40px"
           id="tspan6266">  O</tspan><tspan
           id="tspan6214"
           style="font-size:32px;fill:#00506f;fill-opacity:1">CEANIA  </tspan><tspan
           style="font-size:40px"
           id="tspan6270">F</tspan><tspan
           id="tspan6216"
           style="font-size:32px;fill:#00506f;fill-opacity:1">OOTBALL </tspan><tspan
           style="font-size:40px"
           id="tspan6276">C</tspan><tspan
           id="tspan6218"
           style="font-size:32px;fill:#00506f;fill-opacity:1">ONFEDERATION</tspan></textPath></text>
  </g>
  <g
     inkscape:groupmode="layer"
     id="layer8"
     inkscape:label="Texte sous forme graphique"
     style="display:inline">
    <g
       transform="translate(-30.67806,-7.3250944)"
       style="font-size:48px;font-style:normal;font-variant:normal;font-weight:normal;font-stretch:normal;text-align:start;line-height:125%;writing-mode:lr-tb;text-anchor:start;fill:#00506f;fill-opacity:1;stroke:none;display:inline;font-family:DejaVu Sans Condensed;-inkscape-font-specification:'DejaVu Sans Condensed,'"
       id="text6210-8">
      <path
         d="m 78.851201,254.08804 c -0.475529,-2.5339 -1.902557,-4.34937 -4.281089,-5.44642 -2.378581,-1.09706 -5.378697,-1.30577 -9.000358,-0.62614 -3.608894,0.67722 -6.322835,1.95821 -8.141831,3.84297 -1.819012,1.88474 -2.490764,4.09406 -2.015259,6.62797 0.475495,2.53388 1.901923,4.34615 4.279288,5.43683 2.377346,1.09063 5.370463,1.29735 8.97936,0.62014 3.621658,-0.67965 6.342598,-1.95864 8.162829,-3.83697 1.820178,-1.87837 2.492531,-4.08449 2.01706,-6.61838 z m 3.148173,-0.59077 c 0.679597,3.62167 -0.124592,6.76665 -2.412568,9.43495 -2.288035,2.66827 -5.697184,4.42748 -10.227459,5.27764 -4.517516,0.84771 -8.326123,0.44296 -11.425832,-1.21427 -3.099725,-1.65727 -4.989398,-4.29673 -5.669024,-7.9184 -0.679631,-3.62169 0.120758,-6.76927 2.401168,-9.44275 2.280402,-2.67348 5.685752,-4.43529 10.216061,-5.28543 4.530279,-0.85014 8.345885,-0.44338 11.446829,1.22027 3.100892,1.66365 4.991165,4.30631 5.670825,7.92799 z"
         style="font-size:40px"
         id="path6344" />
      <path
         d="m 81.834738,284.00934 -3.170942,1.01071 c 0.651788,-1.21361 1.046427,-2.41083 1.183916,-3.59167 0.137441,-1.18086 0.02111,-2.35188 -0.348983,-3.51306 -0.72761,-2.28268 -2.061769,-3.78437 -4.002482,-4.50507 -1.940753,-0.7207 -4.379974,-0.61287 -7.31767,0.32351 -2.927797,0.9332 -4.974537,2.25523 -6.140226,3.96609 -1.165702,1.71084 -1.384757,3.70761 -0.657165,5.9903 0.370114,1.16117 0.952902,2.18351 1.748365,3.06701 0.795449,0.88348 1.810117,1.63149 3.044007,2.24406 l -3.141168,1.00122 c -1.01511,-0.7151 -1.870548,-1.54667 -2.566318,-2.49471 -0.695779,-0.94807 -1.230308,-2.00766 -1.603589,-3.17876 -0.968009,-3.03697 -0.699124,-5.75206 0.806656,-8.14529 1.505771,-2.39323 4.040141,-4.15768 7.603117,-5.29335 3.572878,-1.13883 6.665809,-1.16804 9.278801,-0.0876 2.612951,1.08041 4.40344,3.1391 5.371472,6.17606 0.379584,1.19096 0.562468,2.37356 0.548654,3.54781 -0.01387,1.17424 -0.226015,2.33516 -0.636445,3.48277 z"
         style="font-size:32px;fill:#00506f;fill-opacity:1"
         id="path6346" />
      <path
         d="m 84.39898,285.4372 5.237537,12.18791 -2.440452,1.04874 -4.114767,-9.57519 -6.345175,2.72673 3.948202,9.18758 -2.440452,1.04875 -3.948202,-9.18759 -7.76638,3.33747 4.219641,9.81923 -2.440451,1.04874 -5.342412,-12.43195 z"
         style="font-size:32px;fill:#00506f;fill-opacity:1"
         id="path6348" />
      <path
         d="m 91.466192,307.69306 -12.034576,2.2003 3.720113,6.78095 z m 1.951996,-2.90655 1.555684,2.83567 -16.604573,18.2343 -1.420407,-2.58909 4.322284,-4.56336 -4.55432,-8.30153 -6.163553,1.20713 -1.442953,-2.63019 z"
         style="font-size:32px;fill:#00506f;fill-opacity:1"
         id="path6350" />
      <path
         d="m 99.231281,315.13083 2.179749,3.14694 -10.740421,18.76768 16.042981,-11.11226 1.56586,2.26066 -19.177081,13.28311 -2.179746,-3.14695 10.740419,-18.76767 -16.042985,11.11226 -1.565859,-2.26067 z"
         style="font-size:32px;fill:#00506f;fill-opacity:1"
         id="path6352" />
      <path
         d="m 110.82461,331.17631 1.79106,2.20885 -18.119842,14.69261 -1.791061,-2.20885 z"
         style="font-size:32px;fill:#00506f;fill-opacity:1"
         id="path6354" />
      <path
         d="m 117.6224,343.78607 -11.11488,5.11192 5.28343,5.64853 z m 1.17144,-3.2994 2.20944,2.36211 -11.572,21.77821 -2.01731,-2.15672 3.05762,-5.49156 -6.4682,-6.91517 -5.672656,2.69582 -2.04933,-2.19094 z"
         style="font-size:32px;fill:#00506f;fill-opacity:1"
         id="path6356" />
      <path
         d="m 143.21276,355.35197 12.21989,8.83311 -1.94511,2.69091 -9.33904,-6.75069 -5.03442,6.9647 8.43679,6.09852 -1.94511,2.69091 -8.4368,-6.09852 -8.15805,11.286 -2.88085,-2.08242 z"
         style="font-size:40px"
         id="path6358" />
      <path
         d="m 160.35991,376.28007 c -1.7934,-1.01865 -3.63956,-1.08495 -5.53849,-0.19891 -1.89895,0.88608 -3.57641,2.61074 -5.03237,5.174 -1.45084,2.55422 -2.07052,4.87372 -1.85906,6.95851 0.21144,2.0848 1.21386,3.63653 3.00725,4.6552 1.79337,1.01866 3.63727,1.08368 5.5317,0.19505 1.89439,-0.88864 3.56701,-2.61006 5.01786,-5.16427 1.45595,-2.56327 2.08047,-4.88601 1.87357,-6.96824 -0.20695,-2.08222 -1.2071,-3.63266 -3.00046,-4.65134 z m 1.26562,-2.22814 c 2.56324,1.45598 4.06875,3.572 4.51651,6.34806 0.44771,2.77608 -0.23904,5.76729 -2.06027,8.97364 -1.81613,3.19729 -4.03103,5.3145 -6.6447,6.35164 -2.61371,1.03713 -5.20219,0.82771 -7.76544,-0.62826 -2.56328,-1.45598 -4.07234,-3.57102 -4.52717,-6.34513 -0.45485,-2.77411 0.22836,-5.76434 2.04962,-8.9707 1.82124,-3.20634 4.04098,-5.32679 6.65921,-6.36137 2.6182,-1.03454 5.20895,-0.82384 7.77224,0.63212 z"
         style="font-size:32px;fill:#00506f;fill-opacity:1"
         id="path6360" />
      <path
         d="m 178.5054,385.25234 c -1.89834,-0.80638 -3.73994,-0.66064 -5.52479,0.43721 -1.78488,1.09789 -3.2536,3.00346 -4.40618,5.7167 -1.14851,2.70368 -1.49826,5.07892 -1.04924,7.12574 0.44901,2.04682 1.62268,3.47343 3.52101,4.27983 1.89831,0.8064 3.7375,0.65964 5.51759,-0.44027 1.78006,-1.09991 3.24435,-3.0017 4.39288,-5.70537 1.15256,-2.71325 1.50674,-5.09227 1.06254,-7.13706 -0.44424,-2.04477 -1.61551,-3.47036 -3.51381,-4.27678 z m 1.00189,-2.35852 c 2.71323,1.1526 4.45135,3.08212 5.21435,5.78856 0.76295,2.70646 0.42356,5.75667 -1.01816,9.15064 -1.43769,3.38438 -3.39532,5.7415 -5.8729,7.07138 -2.47761,1.32987 -5.07303,1.41852 -7.78627,0.26594 -2.71327,-1.15259 -4.4548,-3.08072 -5.2246,-5.78442 -0.76981,-2.7037 -0.43384,-5.75253 1.00791,-9.1465 1.44174,-3.39396 3.4038,-5.75486 5.8862,-7.08271 2.48237,-1.32782 5.08019,-1.41545 7.79347,-0.26289 z"
         style="font-size:32px;fill:#00506f;fill-opacity:1"
         id="path6362" />
      <path
         d="M 187.54572,386.76364 204.50576,392 l -0.78361,2.53803 -7.12143,-2.19872 -6.09833,19.75188 -2.71719,-0.83892 6.09833,-19.75188 -7.12142,-2.19872 z"
         style="font-size:32px;fill:#00506f;fill-opacity:1"
         id="path6364" />
      <path
         d="m 205.32321,404.55112 -1.73741,8.36842 4.45194,0.92429 c 1.49927,0.31127 2.67989,0.19732 3.54188,-0.34184 0.86196,-0.53916 1.44011,-1.51758 1.73446,-2.93526 0.29643,-1.42788 0.15554,-2.55559 -0.42267,-3.38312 -0.57824,-0.82752 -1.61699,-1.39693 -3.11626,-1.70821 z m 1.95022,-9.39344 -1.42931,6.88444 4.11536,0.85441 c 1.35648,0.28164 2.42751,0.20877 3.21309,-0.2186 0.78555,-0.42734 1.29903,-1.22237 1.54044,-2.38509 0.23926,-1.15249 0.0842,-2.08367 -0.46528,-2.79354 -0.54948,-0.70983 -1.50246,-1.20557 -2.85893,-1.48721 z m -2.25712,-3.11768 7.09863,1.47378 c 2.12141,0.44047 3.65419,1.26935 4.59833,2.48667 0.94411,1.21736 1.22877,2.72866 0.85399,4.53389 -0.29011,1.3973 -0.81415,2.44813 -1.5721,3.1525 -0.75798,0.70439 -1.7293,1.03999 -2.91394,1.0068 1.30911,0.61224 2.23358,1.51432 2.77341,2.70622 0.5398,1.19192 0.64877,2.56301 0.32693,4.11328 -0.42352,2.03983 -1.37537,3.48591 -2.85556,4.33822 -1.48022,0.85232 -3.37282,1.0392 -5.67783,0.56065 l -7.374,-1.53096 z"
         style="font-size:32px;fill:#00506f;fill-opacity:1"
         id="path6366" />
      <path
         d="m 228.76988,399.24524 -5.05596,11.14045 7.69169,0.81137 z m -1.2743,-3.26105 3.21653,0.3393 5.50861,24.03865 -2.93683,-0.3098 -1.28348,-6.15297 -9.4165,-0.99332 -2.52353,5.75138 -2.98345,-0.31472 z"
         style="font-size:32px;fill:#00506f;fill-opacity:1"
         id="path6368" />
      <path
         d="m 239.65232,397.02183 2.84339,0.045 -0.32734,20.66929 10.21746,0.16181 -0.0421,2.65592 -13.06086,-0.20685 z"
         style="font-size:32px;fill:#00506f;fill-opacity:1"
         id="path6370" />
      <path
         d="m 253.85541,397.09656 2.83794,-0.18181 1.32162,20.62958 10.19784,-0.65332 0.16983,2.65082 -13.03578,0.83513 z"
         style="font-size:32px;fill:#00506f;fill-opacity:1"
         id="path6372" />
      <path
         d="m 294.6105,387.38449 0.88318,4.06533 c -1.43323,-0.95445 -2.87645,-1.58696 -4.32965,-1.89753 -1.45323,-0.31052 -2.9242,-0.30409 -4.4129,0.0193 -2.92653,0.63581 -4.95284,2.11866 -6.07892,4.44857 -1.12609,2.32995 -1.28003,5.37807 -0.46181,9.14436 0.81545,3.75361 2.21883,6.45674 4.21013,8.10942 1.99129,1.6527 4.4502,2.16116 7.37674,1.52537 1.4887,-0.32341 2.82974,-0.92787 4.02314,-1.81339 1.19336,-0.8855 2.24405,-2.0598 3.15208,-3.52291 l 0.87489,4.02716 c -1.00978,1.17874 -2.14564,2.14502 -3.40758,2.89886 -1.26197,0.75384 -2.64367,1.29385 -4.14509,1.62003 -3.89356,0.84586 -7.24048,0.19055 -10.04076,-1.96595 -2.80029,-2.15648 -4.69662,-5.51869 -5.68898,-10.08663 -0.99513,-4.58063 -0.66613,-8.43294 0.98699,-11.55695 1.65312,-3.12395 4.42646,-5.10887 8.32001,-5.95476 1.52688,-0.33168 3.02012,-0.41957 4.47973,-0.26367 1.45959,0.15596 2.87919,0.55709 4.2588,1.20339 z"
         style="font-size:40px"
         id="path6374" />
      <path
         d="m 305.99687,389.44595 c -1.94754,0.67898 -3.21308,2.02477 -3.79661,4.03735 -0.58353,2.01262 -0.39008,4.41072 0.58036,7.19432 0.967,2.77378 2.30463,4.76748 4.01291,5.98109 1.70827,1.21364 3.53617,1.48097 5.48372,0.802 1.94753,-0.67895 3.21061,-2.02387 3.78924,-4.03477 0.57859,-2.01088 0.3844,-4.40321 -0.58259,-7.17699 -0.97044,-2.78359 -2.30734,-4.78306 -4.01068,-5.99843 -1.70336,-1.21531 -3.52881,-1.4835 -5.47635,-0.80457 z m -0.84355,-2.41967 c 2.7836,-0.97041 5.36746,-0.71014 7.75159,0.78081 2.38411,1.491 4.18311,3.97747 5.39702,7.45942 1.21046,3.47215 1.34545,6.53322 0.405,9.18322 -0.94049,2.65001 -2.80253,4.46023 -5.58612,5.43066 -2.78362,0.97043 -5.36908,0.71348 -7.7564,-0.77087 -2.38732,-1.48434 -4.18793,-3.96749 -5.40183,-7.44947 -1.21389,-3.48195 -1.34815,-6.5488 -0.40276,-9.20054 0.94539,-2.6517 2.80989,-4.46277 5.5935,-5.43323 z"
         style="font-size:32px;fill:#00506f;fill-opacity:1"
         id="path6376" />
      <path
         d="m 316.14212,383.42625 3.45078,-1.6573 16.84342,13.56029 -8.44887,-17.59194 2.47893,-1.19055 10.0994,21.02864 -3.45078,1.6573 -16.84341,-13.5603 8.44886,17.59194 -2.47893,1.19056 z"
         style="font-size:32px;fill:#00506f;fill-opacity:1"
         id="path6378" />
      <path
         d="m 333.42805,374.80723 10.3205,-6.2443 1.37504,2.27265 -7.88743,4.7722 3.55893,5.88214 7.12542,-4.31115 1.37504,2.27264 -7.12542,4.31116 5.76708,9.53175 -2.43307,1.4721 z"
         style="font-size:32px;fill:#00506f;fill-opacity:1"
         id="path6380" />
      <path
         d="m 345.79228,367.18201 10.70643,-7.83257 1.56836,2.14381 -8.4113,6.1535 4.07774,5.5739 8.07081,-5.9044 1.56835,2.14381 -8.07081,5.9044 4.99107,6.82236 8.62568,-6.31034 1.56836,2.14381 -10.92081,7.9894 z"
         style="font-size:32px;fill:#00506f;fill-opacity:1"
         id="path6382" />
      <path
         d="m 362.38221,357.8033 12.13713,13.4823 2.54317,-2.28943 c 2.15221,-1.93747 3.24174,-3.89939 3.2686,-5.88579 0.0268,-1.98636 -1.01211,-4.14856 -3.11684,-6.48659 -2.09081,-2.32251 -4.1236,-3.5725 -6.09839,-3.74997 -1.97478,-0.17742 -4.03828,0.70259 -6.1905,2.64005 z m -3.84887,-0.0251 4.33152,-3.89935 c 3.02704,-2.72499 5.87598,-4.02476 8.54682,-3.8993 2.67084,0.12551 5.34437,1.67467 8.02061,4.64749 2.69015,2.98835 3.95566,5.82257 3.7965,8.5027 -0.15917,2.68014 -1.74453,5.37575 -4.75607,8.08682 l -4.33152,3.89935 z"
         style="font-size:32px;fill:#00506f;fill-opacity:1"
         id="path6384" />
      <path
         d="m 373.09034,344.31263 8.91196,-9.82618 1.96755,1.78449 -7.00151,7.71974 5.11563,4.63968 6.71809,-7.40724 1.96755,1.78449 -6.71809,7.40724 6.26144,5.67889 7.17996,-7.91649 1.96755,1.78449 -9.09042,10.02293 z"
         style="font-size:32px;fill:#00506f;fill-opacity:1"
         id="path6386" />
      <path
         d="m 399.60546,331.8397 c 0.55113,-0.35563 1.29856,-0.53889 2.24228,-0.54977 0.94373,-0.0109 2.11601,0.14225 3.51687,0.4593 l 6.83842,1.49413 -1.83091,2.45493 -6.40385,-1.42343 c -1.66354,-0.38301 -2.89449,-0.46616 -3.69287,-0.24945 -0.79838,0.21674 -1.53386,0.77601 -2.20644,1.67781 l -1.84959,2.47998 7.90336,5.89441 -1.70013,2.27958 -18.70004,-13.94669 3.82997,-5.13531 c 1.43858,-1.92884 2.95646,-3.03188 4.55363,-3.30912 1.59718,-0.27718 3.29758,0.25679 5.10119,1.60193 1.17737,0.87811 1.97217,1.85098 2.38442,2.9186 0.41224,1.06767 0.41681,2.18537 0.0137,3.3531 z m -12.10359,-0.1581 6.63832,4.95093 2.12984,-2.85573 c 0.82204,-1.1022 1.15987,-2.14322 1.01349,-3.12305 -0.14638,-0.9798 -0.7665,-1.87762 -1.86037,-2.69345 -1.09386,-0.81579 -2.12705,-1.15104 -3.09959,-1.00574 -0.97252,0.14535 -1.8698,0.76911 -2.69186,1.8713 z"
         style="font-size:32px;fill:#00506f;fill-opacity:1"
         id="path6388" />
      <path
         d="m 400.42856,313.72519 7.96484,9.28621 3.9825,-6.63025 z m -3.49418,-0.22142 1.66541,-2.77265 24.11718,5.15393 -1.52059,2.53155 -6.11966,-1.4339 -4.87556,8.11703 4.14853,4.71554 -1.54473,2.57173 z"
         style="font-size:32px;fill:#00506f;fill-opacity:1"
         id="path6390" />
      <path
         d="m 401.72719,305.64011 7.6685,-16.00802 2.39556,1.14757 -3.21995,6.72168 18.64314,8.93082 -1.22858,2.56467 -18.64314,-8.93082 -3.21996,6.72167 z"
         style="font-size:32px;fill:#00506f;fill-opacity:1"
         id="path6392" />
      <path
         d="m 409.63781,288.46616 1.05652,-2.64021 21.65839,8.66694 -1.05652,2.6402 z"
         style="font-size:32px;fill:#00506f;fill-opacity:1"
         id="path6394" />
      <path
         d="m 416.80623,274.83135 c -0.61226,1.96954 -0.28286,3.78729 0.9882,5.45325 1.27108,1.66598 3.31413,2.93653 6.12914,3.81164 2.80509,0.87203 5.20342,0.98219 7.19499,0.33048 1.99157,-0.65169 3.2935,-1.9623 3.90577,-3.93183 0.61227,-1.96951 0.2821,-3.78477 -0.99051,-5.44579 -1.27262,-1.66098 -3.31147,-2.92749 -6.11655,-3.79954 -2.81502,-0.87509 -5.21755,-0.98929 -7.20759,-0.34258 -1.99001,0.64674 -3.29116,1.95487 -3.90345,3.92437 z m -2.44699,-0.7607 c 0.87514,-2.81501 2.62093,-4.73758 5.23737,-5.76774 2.61647,-1.03011 5.68534,-0.99784 9.2066,0.0968 3.51133,1.0916 6.05262,2.80338 7.62389,5.13535 1.57126,2.332 1.91933,4.90551 1.04422,7.72052 -0.87512,2.81504 -2.6192,4.74087 -5.23223,5.77752 -2.61303,1.03665 -5.68018,1.00764 -9.20146,-0.087 -3.52125,-1.09467 -6.06675,-2.81048 -7.63648,-5.14745 -1.5697,-2.33695 -1.917,-4.91294 -1.04191,-7.72798 z"
         style="font-size:32px;fill:#00506f;fill-opacity:1"
         id="path6396" />
      <path
         d="m 417.99925,263.09617 0.71946,-3.75991 20.91807,-5.47877 -19.16786,-3.66778 0.51683,-2.701 22.91243,4.38431 -0.71946,3.75991 -20.91807,5.47877 19.16787,3.66778 -0.51684,2.701 z"
         style="font-size:32px;fill:#00506f;fill-opacity:1"
         id="path6398" />
    </g>
  </g>
</svg>
